<svg version="1.1" id="Layer_1" xmlns="http://www.w3.org/2000/svg" xmlns:xlink="http://www.w3.org/1999/xlink" x="0px" y="0px"
	 width="100%" viewBox="0 0 448 400" enable-background="new 0 0 448 400" xml:space="preserve">
<path fill="#000000" opacity="1.000000" stroke="none" 
	d="
M73.891235,255.935089 
	C70.256912,239.215073 69.159660,222.818039 70.345078,206.060242 
	C71.440643,190.572693 75.078224,175.899139 80.459038,161.515457 
	C86.402542,145.627655 94.983582,131.240219 105.692337,118.129784 
	C122.805336,97.178795 144.197464,81.955376 169.171524,71.862343 
	C193.993088,61.830940 219.797745,58.460049 246.449432,61.579407 
	C265.979218,63.865204 284.602081,69.178291 301.896179,78.514740 
	C334.296478,96.006462 358.242889,121.360008 373.554443,155.105240 
	C385.405548,181.223953 388.752472,208.651123 385.955444,236.541519 
	C382.285614,273.134460 366.715668,304.607788 340.527740,330.818054 
	C323.240143,348.120422 303.180603,360.684052 280.225891,368.799438 
	C257.746338,376.746735 234.652603,378.912262 210.973022,376.475067 
	C173.507706,372.618988 141.723785,356.737915 115.331253,330.414886 
	C94.652718,309.790802 80.958015,284.833862 73.891235,255.935089 
M319.584686,336.080597 
	C354.221832,308.220673 373.132080,272.131714 376.581146,227.109543 
	C365.554260,249.628464 346.530334,250.971008 332.789154,241.861893 
	C319.932770,233.339294 317.330688,213.890488 328.345367,200.787552 
	C334.702240,193.225510 343.622681,189.763794 353.927094,191.687790 
	C363.838989,193.538528 370.310028,199.994507 375.782715,209.180206 
	C376.268463,201.990250 374.866608,196.352158 373.893738,190.622955 
	C369.206635,163.021378 356.601593,139.256592 337.836334,118.974174 
	C312.617371,91.716293 281.463715,75.635574 244.144714,71.945099 
	C216.538925,69.215164 190.065445,72.893517 164.944870,84.835075 
	C139.535370,96.913994 119.225098,114.877510 103.615845,138.312134 
	C87.631248,162.310287 80.499969,189.148453 79.688370,217.437622 
	C79.254211,232.570770 81.892776,247.804611 86.393639,262.536102 
	C95.164391,291.243103 111.270302,314.948151 134.500000,333.820190 
	C171.567780,363.934387 213.951828,372.693359 260.188202,363.792389 
	C281.871246,359.618164 301.469696,350.059540 319.584686,336.080597 
M357.826111,220.676468 
	C358.967926,222.072617 359.996460,223.617981 362.632233,223.997375 
	C362.698395,220.324448 366.965820,221.687943 368.721527,219.101837 
	C366.589966,216.815704 363.241699,216.969208 361.558380,214.495911 
	C359.268250,216.039841 357.234314,217.223328 357.826111,220.676468 
M348.268219,210.772568 
	C352.179260,210.744339 350.895844,205.592819 354.357849,205.272934 
	C353.324188,202.511734 351.518799,201.161362 349.617523,200.034393 
	C342.334595,202.453979 346.689789,206.597900 348.268219,210.772568 
M345.102783,233.622162 
	C345.296967,236.102722 346.981140,237.812637 349.058533,237.943283 
	C351.262573,238.081924 352.524048,235.932419 353.679352,233.728745 
	C351.281769,232.291031 351.276520,229.328293 349.168945,227.095779 
	C347.787567,229.323151 346.611542,231.219391 345.102783,233.622162 
M330.787445,219.382584 
	C331.458282,221.027420 333.564606,220.448685 334.417969,221.634079 
	C336.238586,224.163147 337.924561,223.399918 339.607849,221.603287 
	C341.027008,220.088531 341.380951,218.376663 339.780792,216.811462 
	C338.199280,215.264526 336.511597,213.875458 334.496826,216.469223 
	C333.603577,217.619095 331.625092,217.294617 330.787445,219.382584 
z"/>
<path fill="#000000" opacity="1.000000" stroke="none" 
	d="
M246.435715,359.494629 
	C237.358444,366.817566 227.600525,368.492615 217.192154,364.112030 
	C206.058655,359.426208 200.032547,350.019714 200.167175,338.656586 
	C200.399719,319.027344 218.643387,306.550537 235.331635,311.620667 
	C249.832443,316.026245 257.703400,327.683136 256.035889,342.677643 
	C255.299271,349.301239 251.794769,354.837646 246.435715,359.494629 
M243.993759,330.110016 
	C238.095245,326.762268 231.399429,326.076324 224.978333,324.523956 
	C221.534714,323.691437 221.332733,326.657349 220.955338,328.880951 
	C220.560806,331.205566 218.244919,333.933960 222.217972,335.605347 
	C225.520584,336.994720 228.865509,337.776489 232.431427,338.335083 
	C239.705643,339.474518 241.846161,338.401245 243.993759,330.110016 
M217.906113,347.892731 
	C219.883255,347.904785 221.797516,347.912415 223.728699,348.731293 
	C226.730850,350.004242 227.687820,348.443878 227.226944,345.610779 
	C227.028488,344.390869 226.697739,343.192474 226.160156,340.792847 
	C224.530853,349.121429 218.030731,345.715027 213.453049,347.187988 
	C214.903488,348.584259 216.082642,347.774048 217.906113,347.892731 
z"/>
<path fill="#000000" opacity="1.000000" stroke="none" 
	d="
M332.511292,310.238953 
	C323.759155,324.283539 310.284546,328.445312 296.325134,321.700531 
	C286.338043,316.875031 280.050598,304.604492 281.841370,293.434052 
	C283.657135,282.107605 292.748444,273.408813 304.070221,271.557526 
	C314.579529,269.839111 323.157318,272.927704 329.618195,281.232208 
	C336.474152,290.044586 337.130615,299.757202 332.511292,310.238953 
M319.222351,308.827393 
	C321.602051,308.429840 324.921387,309.974609 325.566467,305.927826 
	C326.055450,302.860077 322.758606,298.782898 319.541077,298.138794 
	C312.892517,296.807831 306.102386,299.375824 299.436829,297.317596 
	C298.227844,296.944275 296.542145,297.792511 295.172760,298.324493 
	C291.833038,299.621857 291.225586,302.567078 291.309753,305.640533 
	C291.403442,309.063019 294.106018,308.762268 296.419342,308.774536 
	C303.709534,308.813141 310.999939,308.811951 319.222351,308.827393 
z"/>
<path fill="#000000" opacity="1.000000" stroke="none" 
	d="
M219.637665,141.820114 
	C221.569183,141.826691 223.061081,141.826691 224.767273,141.826691 
	C224.507828,141.416901 224.416489,141.111755 224.290588,141.096756 
	C215.569824,140.058121 212.225098,134.495209 215.305664,126.186775 
	C216.212021,123.742294 218.116837,123.097153 220.449646,123.096367 
	C233.769150,123.091911 247.088654,123.097908 260.408142,123.076172 
	C264.483978,123.069527 266.347260,124.743500 266.341461,129.119308 
	C266.326569,140.346939 266.423492,140.348160 254.948761,140.250885 
	C247.650955,140.189011 240.351334,140.319260 233.052948,140.401810 
	C232.603714,140.406891 232.158279,140.749619 231.360687,141.080719 
	C232.294189,143.025696 234.464218,143.894730 234.976425,146.131332 
	C237.119446,155.488708 234.430161,159.144806 224.931854,159.168442 
	C213.443573,159.197037 201.955002,159.185165 190.466797,159.134247 
	C184.923172,159.109680 183.789261,157.894913 183.799957,152.317459 
	C183.802521,150.985748 183.975494,149.642517 183.853821,148.324554 
	C183.414658,143.567474 186.178421,142.213165 190.232437,142.162964 
	C199.887589,142.043411 209.542831,141.929642 219.637665,141.820114 
z"/>
<path fill="#000000" opacity="1.000000" stroke="none" 
	d="
M262.680511,238.075089 
	C262.878510,238.924667 263.162323,239.473190 263.446136,240.021713 
	C268.333679,237.391052 273.457886,240.999603 278.421204,239.434219 
	C280.988617,238.624496 283.666534,238.731339 286.136749,239.904694 
	C287.505768,240.554962 288.661072,240.456131 289.899506,239.736053 
	C292.221497,238.385941 294.443481,238.536560 296.168304,240.651382 
	C298.261505,243.217789 296.135010,245.759277 295.644531,248.208679 
	C295.218109,250.338272 293.330841,251.266174 291.011108,251.101517 
	C283.506897,250.568939 275.965332,251.415314 268.505157,251.020645 
	C257.321655,250.429001 246.171356,251.298553 235.000427,250.885361 
	C227.266098,250.599304 219.381119,251.186996 211.770096,250.629425 
	C206.168747,250.219086 199.945511,253.720398 194.732819,249.113388 
	C191.258743,251.273132 169.787659,251.967194 164.802460,249.951111 
	C166.147598,245.417633 167.109726,240.746902 168.049194,236.070435 
	C168.987686,231.398865 172.724304,233.196915 176.182281,233.574570 
	C174.582581,238.420837 176.158798,239.736115 181.057587,239.185089 
	C185.118378,238.728317 189.249115,240.676529 191.507172,234.895203 
	C192.527100,232.283905 195.974808,232.302826 197.840637,235.506729 
	C199.562103,238.462738 205.562439,241.309891 208.357697,240.097198 
	C210.796906,239.038956 212.855286,238.615952 215.418167,239.895935 
	C218.434875,241.402618 221.391998,236.890228 224.833160,239.585098 
	C227.474564,241.653625 229.020508,239.696640 229.112091,237.206833 
	C229.260147,233.181427 231.365219,232.508484 234.715546,233.116776 
	C236.399445,234.565338 234.677139,238.179947 237.346497,238.511856 
	C241.383240,239.013824 245.779099,241.149017 249.509521,238.878662 
	C252.387573,237.127060 255.678314,236.260361 258.331726,234.200943 
	C259.587952,233.225922 260.939117,232.431793 262.419861,233.361694 
	C264.348022,234.572601 263.448303,236.233810 262.680511,238.075089 
z"/>
<path fill="#000000" opacity="1.000000" stroke="none" 
	d="
M116.860619,154.817291 
	C114.435448,140.851105 119.928864,131.783951 132.475616,127.680649 
	C141.667923,124.674393 154.921555,131.627426 157.641556,140.655731 
	C159.902435,148.160095 160.361481,157.510162 154.733795,163.521332 
	C149.311874,169.312714 141.214951,172.465866 132.450989,169.792480 
	C124.880928,167.483261 119.746857,162.579254 116.860619,154.817291 
M127.742958,147.464294 
	C125.576065,148.282440 124.941628,149.678909 126.290283,151.662994 
	C126.840958,152.473129 127.766403,152.464294 128.472000,151.886124 
	C130.242508,150.435318 130.438660,148.931564 127.742958,147.464294 
z"/>
<path fill="#000000" opacity="1.000000" stroke="none" 
	d="
M217.248779,115.518044 
	C216.930740,116.158623 216.817215,116.475349 216.648315,116.759117 
	C215.433899,118.799171 217.962433,123.209824 212.923752,122.814087 
	C204.477158,122.150711 203.633636,121.437775 203.646866,115.150162 
	C203.651016,113.176392 203.191162,110.955208 204.509949,109.332573 
	C207.678528,105.433975 210.201263,101.498253 207.330856,96.754478 
	C208.932144,95.044945 210.251740,95.554024 211.535263,95.829079 
	C216.274033,96.844597 218.088226,95.530716 218.729691,90.597321 
	C219.277328,86.385498 218.147400,82.418900 216.465088,78.654518 
	C223.830139,75.727638 231.854401,82.121178 231.176788,89.833351 
	C231.090393,90.816742 230.695923,91.769798 230.559937,92.752922 
	C230.386337,94.007988 230.671860,95.155167 232.108994,95.436241 
	C233.333633,95.675751 233.871140,94.718300 234.262543,93.777916 
	C234.913361,92.214256 234.717514,89.651230 237.505341,90.445885 
	C239.829025,91.108246 241.784149,92.662483 242.116730,95.200279 
	C242.392380,97.303757 242.531525,99.650284 241.878418,101.604088 
	C240.459259,105.849640 241.601349,109.201263 243.813583,112.859024 
	C245.197876,115.147858 249.004105,117.923653 245.346100,120.966591 
	C242.706024,123.162766 235.423340,120.713898 233.758469,117.671875 
	C233.612701,117.405510 233.261383,117.251633 233.001160,117.042999 
	C231.573318,116.612350 230.976700,117.902351 230.038589,118.479553 
	C228.307083,119.544891 226.515015,119.656227 224.946487,118.341377 
	C223.402756,117.047279 223.151840,115.276047 223.709732,113.339333 
	C224.366867,111.058006 226.360489,109.023163 224.813599,105.575310 
	C222.170013,109.012650 219.798828,112.095787 217.248779,115.518044 
z"/>
<path fill="#000000" opacity="1.000000" stroke="none" 
	d="
M172.906189,302.097870 
	C172.959152,303.972839 172.959152,305.448456 172.959152,306.961731 
	C174.546982,308.294403 176.444321,307.684998 178.216125,307.763214 
	C181.093460,307.890259 183.801498,307.223145 184.454681,304.052826 
	C185.118759,300.829529 182.766953,299.692841 180.029129,299.287689 
	C177.858093,298.966431 177.799927,297.042938 177.193069,295.584106 
	C174.847092,289.944580 171.676437,288.106781 165.502640,288.906097 
	C161.813950,289.383667 156.910355,283.860077 157.952255,280.295532 
	C158.157776,279.592407 158.825821,278.756683 159.478729,278.512939 
	C160.540558,278.116516 161.506256,278.913147 161.894135,279.827179 
	C163.377579,283.322906 166.256668,283.693359 169.592117,284.079712 
	C174.587173,284.658386 178.832825,286.892822 180.863434,291.965759 
	C181.588318,293.776672 182.885162,294.883331 184.621918,295.735474 
	C189.127380,297.945953 190.094147,301.929291 188.911957,306.285034 
	C187.799637,310.383392 184.852188,312.718048 180.324371,312.298920 
	C175.654938,311.866699 170.766296,313.489380 165.943268,310.833740 
	C162.532501,315.404816 159.961838,321.852753 152.348373,320.935455 
	C148.900192,320.519989 145.743439,319.088257 144.232315,315.793182 
	C145.885132,312.690552 148.567535,315.128632 150.813675,313.514496 
	C143.758972,311.412170 136.962006,312.630402 130.283661,312.328278 
	C124.664658,312.074097 119.469543,308.385193 117.787880,303.249603 
	C115.488380,296.227173 119.222687,288.911438 126.834976,286.250946 
	C129.229416,285.414093 130.718445,284.223053 131.978317,282.063660 
	C134.293259,278.095947 137.605026,275.107758 142.050583,273.513916 
	C143.983902,272.820770 145.824524,272.394104 147.656494,273.524017 
	C148.066544,276.095215 146.633865,277.082184 144.733078,277.603851 
	C139.450546,279.053619 136.044006,282.485931 134.593781,287.652527 
	C133.955032,289.928131 132.779785,290.303528 130.690872,290.443726 
	C125.885384,290.766327 121.313278,295.392517 121.519379,299.348083 
	C121.744850,303.675507 126.182846,307.679688 131.129990,307.774506 
	C137.123428,307.889343 143.121338,307.875488 149.115601,307.792969 
	C151.628754,307.758392 154.079102,307.721100 156.302048,309.517761 
	C158.484085,307.145416 160.059494,304.967865 158.302948,301.878876 
	C157.287109,300.092499 157.847961,298.493378 159.306625,297.470886 
	C162.636429,295.136810 164.863220,289.867188 169.105118,290.621155 
	C173.158066,291.341583 170.324265,296.925507 172.346756,299.778717 
	C172.705139,300.284271 172.693832,301.051910 172.906189,302.097870 
z"/>
<path fill="#000000" opacity="1.000000" stroke="none" 
	d="
M190.663300,217.488190 
	C189.169815,224.668381 184.547318,228.078323 178.093719,229.036270 
	C171.060379,230.080322 164.806259,228.405106 160.447800,222.261292 
	C159.700577,221.207977 159.090561,219.920563 158.868500,218.661652 
	C158.479080,216.454102 158.643066,214.180511 161.118576,213.151123 
	C163.587692,212.124405 165.216431,213.408691 166.472748,215.480362 
	C168.464264,218.764328 170.239029,222.365341 175.133377,221.626678 
	C177.757874,221.230591 180.163269,220.420761 180.719238,217.511505 
	C181.266006,214.650314 179.194443,213.218430 176.905334,212.413559 
	C174.256348,211.482178 171.464050,210.967758 168.772766,210.145386 
	C163.255630,208.459534 159.130829,203.839005 158.996460,199.324951 
	C158.845688,194.259705 162.379837,190.132523 168.590027,188.109100 
	C173.753586,186.426682 178.728577,186.714386 183.562485,189.335419 
	C186.195541,190.763107 187.985489,192.775757 188.839386,195.657288 
	C189.633072,198.335602 188.653870,200.260254 186.310196,201.480835 
	C184.018906,202.674133 182.329987,201.346085 181.301956,199.551575 
	C179.338974,196.125000 176.655624,194.451111 172.680878,195.008163 
	C171.086365,195.231659 169.720322,195.810349 169.343369,197.524918 
	C168.973526,199.207214 169.881607,200.380524 171.213242,201.290298 
	C173.784790,203.047226 176.892609,203.049667 179.740509,203.899628 
	C187.875458,206.327591 190.715866,209.713730 190.663300,217.488190 
z"/>
<path fill="#000000" opacity="1.000000" stroke="none" 
	d="
M304.288696,221.090286 
	C300.346100,228.239197 293.936432,229.492203 287.002747,229.161728 
	C281.289856,228.889435 276.845062,226.239273 274.253754,220.932083 
	C272.924927,218.210526 272.071106,215.334793 275.281342,213.470673 
	C278.647614,211.515945 280.247406,213.840271 281.833405,216.581680 
	C284.636108,221.426254 288.102142,222.812042 292.131317,221.108856 
	C294.049652,220.297989 295.594421,219.079178 295.677277,216.728424 
	C295.755371,214.513123 294.418030,213.394119 292.533722,212.771103 
	C290.174591,211.991089 287.803986,211.240128 285.416290,210.553131 
	C276.970581,208.123016 272.879242,203.451996 273.869202,197.313019 
	C274.819122,191.422333 282.056702,186.523636 289.661743,187.048767 
	C294.185028,187.361115 298.568909,188.620789 301.636688,192.370544 
	C303.870514,195.100983 304.566650,198.452698 301.772797,200.839005 
	C298.750000,203.420883 296.631104,200.705566 295.011780,198.248138 
	C293.184753,195.475510 290.744385,194.042648 287.423553,194.625183 
	C285.730957,194.922073 284.209473,195.846298 283.750702,197.640793 
	C283.231232,199.672791 284.811676,200.645660 286.230194,201.516769 
	C288.845703,203.122894 291.946045,203.150482 294.798218,203.996445 
	C303.983978,206.720886 307.296875,212.489899 304.288696,221.090286 
z"/>
<path fill="#000000" opacity="1.000000" stroke="none" 
	d="
M234.670715,217.701965 
	C238.118973,209.193161 241.459473,201.051559 244.700394,192.870514 
	C245.970078,189.665497 248.056717,187.178329 251.532455,187.185959 
	C254.852386,187.193222 256.660309,189.822617 257.843750,192.771072 
	C261.615845,202.169159 265.373688,211.573502 269.236237,220.934494 
	C270.552734,224.125061 270.610260,226.959076 267.124512,228.505981 
	C263.480194,230.123245 261.586365,227.193787 260.842407,224.622574 
	C258.998291,218.248871 254.094971,219.541107 249.559662,219.230545 
	C245.299606,218.938797 243.257980,220.927048 241.906021,224.730850 
	C240.858185,227.678970 238.678452,230.338364 235.092331,228.502289 
	C231.932800,226.884659 231.591599,223.924118 233.329803,220.796631 
	C233.811951,219.929123 234.129868,218.970337 234.670715,217.701965 
M254.474335,208.516006 
	C254.100906,207.092636 253.830170,205.631241 253.321701,204.257858 
	C252.911224,203.149078 252.054077,202.057388 250.730637,202.695312 
	C248.944885,203.556061 248.397430,205.328568 248.298126,207.217834 
	C248.208664,208.919678 248.281494,210.648697 250.267822,211.231781 
	C252.163879,211.788330 253.880295,211.558762 254.474335,208.516006 
z"/>
<path fill="#000000" opacity="1.000000" stroke="none" 
	d="
M210.491196,187.279587 
	C214.574402,186.837997 216.890656,188.872711 218.193848,191.991669 
	C222.095795,201.330124 225.849899,210.730621 229.612930,220.126450 
	C230.037598,221.186798 230.288162,222.360657 230.380203,223.501190 
	C230.561020,225.741776 230.384079,227.978607 227.767105,228.792755 
	C225.029007,229.644608 223.438629,228.141083 222.194778,225.868256 
	C218.829910,219.719833 212.997635,217.480865 206.290222,219.480240 
	C203.722260,220.245728 203.374603,222.438354 202.590698,224.390182 
	C201.481354,227.152359 200.192780,229.945114 196.543015,228.614197 
	C193.164856,227.382324 193.013672,224.537903 194.173233,221.560089 
	C198.084137,211.516647 202.029816,201.486740 205.965500,191.452957 
	C206.740265,189.477737 208.206223,188.202103 210.491196,187.279587 
M212.301056,211.584900 
	C216.140656,209.905609 216.029007,206.655884 211.969086,201.921143 
	C207.393402,207.081955 207.295990,209.551468 212.301056,211.584900 
z"/>
<path fill="#000000" opacity="1.000000" stroke="none" 
	d="
M329.033295,172.392242 
	C314.151642,177.985443 299.175903,172.209457 292.850677,158.751953 
	C286.830505,145.943451 291.672333,130.896835 304.256561,123.306564 
	C316.863373,115.702667 333.922577,120.112633 341.724457,132.992355 
	C349.487793,145.808395 345.231720,162.935745 332.410645,170.465561 
	C331.406219,171.055481 330.393036,171.630554 329.033295,172.392242 
M302.545654,131.131363 
	C300.974121,131.884003 300.032562,133.251495 299.096558,134.634506 
	C293.365265,143.102707 293.977203,153.667328 300.684479,161.903778 
	C307.026337,169.691498 317.251404,171.984512 327.386169,167.554840 
	C335.343079,164.077042 339.769196,157.656052 340.627289,149.124283 
	C341.658661,138.870270 336.866425,131.589035 327.948151,126.900612 
	C319.770142,122.601318 312.005402,123.201591 304.576691,129.636368 
	C304.118286,130.051239 303.659912,130.466110 302.545654,131.131363 
z"/>
<path fill="#000000" opacity="1.000000" stroke="none" 
	d="
M126.324677,197.597824 
	C136.099579,205.894653 138.993896,218.325821 134.193130,230.345932 
	C130.447037,239.725342 118.224426,247.486023 107.905449,247.037109 
	C95.850815,246.512695 85.257988,238.021332 82.023819,226.289978 
	C78.828354,214.699066 83.254250,203.083954 93.611725,195.879257 
	C103.481064,189.014069 115.338730,189.564667 126.324677,197.597824 
M130.579437,226.858032 
	C130.763229,226.046082 130.934204,225.231003 131.132736,224.422668 
	C133.885086,213.216522 128.275970,201.774796 118.018890,197.679855 
	C106.732002,193.173798 94.216972,197.346329 88.513947,207.516907 
	C82.983696,217.379349 85.848793,230.913223 94.888336,237.627487 
	C106.883934,246.537399 122.669014,242.076279 130.579437,226.858032 
z"/>
<path fill="#000000" opacity="1.000000" stroke="none" 
	d="
M264.155579,142.729706 
	C267.737274,147.263855 266.260773,152.114029 265.747986,156.746918 
	C265.517029,158.833664 263.125702,159.051056 261.259033,159.069046 
	C254.932999,159.130035 248.606293,159.148026 242.279922,159.135910 
	C238.589371,159.128845 236.795898,157.176437 236.794022,153.524902 
	C236.792923,151.361099 236.702713,149.190430 236.842270,147.035141 
	C237.040543,143.972992 238.612946,141.907059 241.835434,141.930252 
	C249.140366,141.982834 256.475830,141.186493 264.155579,142.729706 
z"/>
<path fill="#000000" opacity="1.000000" stroke="none" 
	d="
M204.352905,140.246735 
	C199.103561,140.208923 194.287857,140.168106 189.472168,140.172516 
	C185.582367,140.176071 183.585342,138.393280 183.788956,134.384079 
	C183.873138,132.726364 183.952179,131.061157 183.890381,129.404694 
	C183.725311,124.980011 185.874100,123.050110 190.221924,123.090248 
	C195.867142,123.142357 201.514343,123.065948 207.159729,122.980606 
	C210.836441,122.925026 212.717972,124.720970 212.936005,128.324860 
	C213.026138,129.814819 213.089767,131.313828 213.034241,132.803848 
	C212.798782,139.119431 211.089050,140.646255 204.352905,140.246735 
z"/>
<path fill="#000000" opacity="1.000000" stroke="none" 
	d="
M146.697235,298.773987 
	C142.991989,301.441528 140.961121,301.054932 140.688828,296.387482 
	C140.544449,293.912415 139.959793,291.466003 139.727753,288.992218 
	C139.510239,286.673492 139.896362,285.047699 142.887268,284.423553 
	C146.407761,283.688934 146.771133,279.777130 148.307144,277.150513 
	C152.413773,270.127991 158.670273,268.128845 165.044708,272.025848 
	C166.320587,272.805847 167.668320,273.572327 167.354767,275.453674 
	C166.141373,276.821564 164.566330,276.173370 163.143433,276.234711 
	C156.778793,276.509094 151.952072,283.387665 154.140488,289.314148 
	C154.728790,290.907379 154.246490,291.845978 153.216873,292.806091 
	C151.149231,294.734222 149.065247,296.644775 146.697235,298.773987 
z"/>
<path fill="#000000" opacity="1.000000" stroke="none" 
	d="
M304.708374,129.446411 
	C307.796082,129.185822 309.217987,130.413300 307.325256,133.124863 
	C303.137543,139.124130 302.624603,144.962189 307.236145,150.944626 
	C308.058350,152.011230 308.804657,153.410980 307.485748,154.491837 
	C305.921326,155.773880 304.762878,154.455673 303.707825,153.385406 
	C298.770447,148.376724 298.478119,140.256348 303.057922,131.242645 
	C303.659912,130.466110 304.118286,130.051239 304.708374,129.446411 
z"/>
<path fill="#000000" opacity="1.000000" stroke="none" 
	d="
M314.645630,166.162857 
	C313.574585,160.110016 315.620300,154.803482 316.980103,148.322006 
	C321.313416,152.271255 320.473450,156.874542 321.143982,160.757248 
	C322.231049,167.051788 321.459137,167.523758 314.645630,166.162857 
z"/>
<path fill="#000000" opacity="1.000000" stroke="none" 
	d="
M329.491547,134.711395 
	C328.681824,133.097183 327.185028,132.197662 327.559235,130.186707 
	C329.722076,128.762772 330.994629,130.133301 332.255402,131.811203 
	C336.751495,137.794830 336.512970,147.495819 331.733917,153.189987 
	C330.720764,154.397141 329.595581,155.724625 328.015503,154.630310 
	C326.151794,153.339523 327.671600,151.981201 328.520111,150.848953 
	C332.298553,145.807205 332.863190,140.565323 329.491547,134.711395 
z"/>
<path fill="#000000" opacity="1.000000" stroke="none" 
	d="
M306.964172,144.512131 
	C306.411804,140.864532 306.897736,137.861252 309.027405,135.259933 
	C309.842621,134.264236 310.835632,133.780029 312.044067,134.483459 
	C312.820465,134.935410 313.285156,135.809113 312.781311,136.576706 
	C309.996368,140.819534 311.291809,145.022888 313.384583,149.251129 
	C308.350433,151.092804 308.225555,147.322174 306.964172,144.512131 
z"/>
<path fill="#000000" opacity="1.000000" stroke="none" 
	d="
M328.780396,144.331726 
	C328.330231,145.455017 328.059418,146.249054 327.627686,146.942978 
	C326.642151,148.527100 325.953217,151.280487 323.446167,149.862961 
	C321.212708,148.600143 323.068146,146.657730 323.860504,145.153442 
	C324.860809,143.254410 324.920929,141.468872 324.029144,139.486923 
	C323.328979,137.930786 322.077301,136.283966 323.937164,133.969254 
	C328.095612,136.123886 329.400696,139.533768 328.780396,144.331726 
z"/>
<path fill="#000000" opacity="1.000000" stroke="none" 
	d="
M319.474884,138.971207 
	C321.932373,140.742966 322.221527,142.691223 320.592621,144.727066 
	C319.427185,146.183670 317.805145,146.548111 316.112732,145.594025 
	C314.552155,144.714279 313.437134,143.371368 313.944183,141.507935 
	C314.653351,138.901779 316.716492,138.453293 319.474884,138.971207 
z"/>
<path fill="#000000" opacity="1.000000" stroke="none" 
	d="
M93.820236,221.961273 
	C93.846672,217.138748 93.892403,212.810242 93.907249,208.481628 
	C93.917854,205.389435 95.415565,203.944824 98.529900,203.953690 
	C105.338089,203.973068 112.146965,203.934021 118.954712,203.850540 
	C122.450119,203.807693 124.192543,205.293228 124.148224,208.924393 
	C124.069298,215.392273 124.019127,221.865082 124.188728,228.329758 
	C124.296585,232.441177 122.390129,234.093430 118.490463,234.051788 
	C112.351974,233.986237 106.207603,233.811508 100.075676,234.002533 
	C95.301308,234.151276 93.282089,232.185333 93.765930,227.450439 
	C93.934525,225.800552 93.814514,224.121170 93.820236,221.961273 
z"/>
</svg>